<svg width="21" height="21" viewBox="0 0 21 21" fill="none" xmlns="http://www.w3.org/2000/svg">
<path fill-rule="evenodd" clip-rule="evenodd" d="M10.1629 20.3127C13.2559 20.3092 16.0254 18.9353 17.8872 16.7701L16.2896 14.6123C14.9187 16.4989 12.6856 17.7281 10.1629 17.7319C6.04473 17.7256 2.69839 14.4541 2.61453 10.3878C2.80097 10.9106 3.30373 11.2851 3.89469 11.2851C4.64443 11.2851 5.25221 10.6823 5.25221 9.93862C5.25221 9.67135 5.17371 9.42226 5.03832 9.21281L5.03973 9.21266L5.02993 9.19999C4.99347 9.14498 4.95306 9.09277 4.9091 9.04377L2.04031 5.33473L1.6264 4.7757L1.61797 4.78869L1.61642 4.78669L1.61638 4.79114C0.600314 6.36053 0.0110122 8.22767 0.011012 10.2313C0.0110115 15.7952 4.55507 20.3064 10.1629 20.3127ZM17.7112 10.0749C17.6274 6.00859 14.281 2.73704 10.1629 2.7308C7.64018 2.73463 5.40709 3.96378 4.03619 5.85035L2.43854 3.69257C4.30039 1.52741 7.06982 0.153455 10.1629 0.149966C15.7707 0.156292 20.3148 4.66745 20.3148 10.2313C20.3148 12.235 19.7255 14.1022 18.7094 15.6716L18.7093 15.676L18.7078 15.674L18.6994 15.687L18.2855 15.1279L15.4167 11.4189C15.3727 11.3699 15.3323 11.3177 15.2958 11.2627L15.286 11.25L15.2874 11.2499C15.1521 11.0404 15.0736 10.7913 15.0736 10.5241C15.0736 9.7804 15.6813 9.17754 16.4311 9.17754C17.022 9.17754 17.5248 9.5521 17.7112 10.0749Z" fill="black"/>
</svg>
