<svg width="136" height="21" viewBox="0 0 136 21" fill="none" xmlns="http://www.w3.org/2000/svg">
<path d="M130.047 16.5653C129.389 16.5653 128.784 16.4444 128.233 16.2025C127.689 15.954 127.249 15.5912 126.913 15.1142C126.584 14.6372 126.419 14.0527 126.419 13.3607C126.419 12.3462 126.796 11.6072 127.548 11.1436C128.307 10.6733 129.342 10.4381 130.652 10.4381H133.172C133.172 9.71256 133 9.12806 132.658 8.68464C132.322 8.23451 131.781 8.00944 131.035 8.00944C130.437 8.00944 129.93 8.14381 129.513 8.41254C129.104 8.68128 128.778 9.0172 128.536 9.42031L126.893 8.22107C127.41 7.51564 128.002 6.9916 128.667 6.64896C129.339 6.2996 130.108 6.12492 130.975 6.12492C131.895 6.12492 132.671 6.2996 133.303 6.64896C133.934 6.99832 134.411 7.48204 134.734 8.10014C135.056 8.71823 135.217 9.43038 135.217 10.2366V16.3638H133.434L133.303 14.7614C132.563 15.964 131.478 16.5653 130.047 16.5653ZM130.34 14.7413C130.891 14.7413 131.378 14.6069 131.801 14.3382C132.224 14.0695 132.553 13.7302 132.789 13.3203C133.03 12.9038 133.158 12.4671 133.172 12.0103H130.793C130.074 12.0103 129.533 12.1446 129.171 12.4134C128.815 12.6754 128.637 13.0147 128.637 13.4312C128.637 13.8545 128.798 14.1803 129.12 14.4087C129.45 14.6304 129.856 14.7413 130.34 14.7413Z" fill="black"/>
<path d="M124.424 4.29091H122.106V2.12422H124.424V4.29091ZM124.333 16.3639H122.187V6.29636H124.333V16.3639Z" fill="black"/>
<path d="M119.919 16.3644H111.343V14.893L117.188 8.10072H111.635V6.29682H119.919V7.88909L114.276 14.5403H119.919V16.3644Z" fill="black"/>
<path d="M105.78 16.5652C105.196 16.5652 104.645 16.4577 104.128 16.2427C103.617 16.021 103.184 15.6851 102.828 15.2349V16.3636H100.621V2.13403H102.828V7.41471C103.184 6.95785 103.614 6.62193 104.118 6.40695C104.628 6.19196 105.172 6.08446 105.75 6.08446C106.671 6.08446 107.447 6.32632 108.078 6.81005C108.716 7.28706 109.197 7.92531 109.519 8.7248C109.848 9.51757 110.013 10.3842 110.013 11.3248C110.013 12.2318 109.852 13.0884 109.529 13.8946C109.214 14.6941 108.723 15.3458 108.058 15.8497C107.42 16.3267 106.661 16.5652 105.78 16.5652ZM105.236 14.59C105.827 14.59 106.315 14.4455 106.698 14.1566C107.08 13.8677 107.366 13.4781 107.554 12.9876C107.742 12.4905 107.836 11.9362 107.836 11.3248C107.836 10.7403 107.746 10.1995 107.564 9.70233C107.39 9.19845 107.111 8.79534 106.728 8.49301C106.345 8.18397 105.848 8.02944 105.236 8.02944C104.645 8.02944 104.158 8.17725 103.775 8.47286C103.392 8.76847 103.107 9.16485 102.918 9.66202C102.73 10.1592 102.636 10.7134 102.636 11.3248C102.636 11.916 102.724 12.4602 102.898 12.9574C103.08 13.4478 103.362 13.8442 103.745 14.1466C104.128 14.4422 104.625 14.59 105.236 14.59Z" fill="black"/>
<path d="M70.6038 16.3639H68.044L65.051 11.4863L63.3076 13.4112V16.3639H61.1509V2.12422H63.3076V10.8716L67.3184 6.29636H70.11L66.4921 10.1359L70.6038 16.3639Z" fill="black"/>
<path d="M58.1277 4.29091H55.8098V2.12422H58.1277V4.29091ZM58.037 16.3639H55.8904V6.29636H58.037V16.3639Z" fill="black"/>
<path d="M51.8595 16.5653C51.1944 16.5653 50.6435 16.4411 50.2068 16.1925C49.7768 15.9439 49.4543 15.5979 49.2393 15.1545C49.0244 14.7111 48.9169 14.1971 48.9169 13.6126V8.10014H47.3044V6.29624H48.9471V3.86754L51.0029 2.22488V6.29624H53.613V8.10014H51.0029V13.3203C51.0029 13.8108 51.1205 14.1635 51.3556 14.3785C51.5975 14.5868 51.8965 14.6909 52.2526 14.6909C52.6557 14.6909 53.0823 14.5801 53.5324 14.3583V16.2932C53.351 16.3672 53.1092 16.431 52.8068 16.4847C52.5045 16.5385 52.1887 16.5653 51.8595 16.5653Z" fill="black"/>
<path d="M42.4366 16.5648C41.7513 16.5648 41.1299 16.4405 40.5722 16.1919C40.0146 15.9433 39.5477 15.6141 39.1714 15.2043C38.7952 14.7945 38.5265 14.341 38.3652 13.8438L40.1087 13.0477C40.2766 13.5247 40.5454 13.9278 40.9149 14.257C41.2844 14.5795 41.7681 14.7408 42.3661 14.7408C42.917 14.7408 43.3436 14.6097 43.6459 14.3477C43.9482 14.0857 44.0994 13.7767 44.0994 13.4206C44.0994 13.1518 44.0121 12.9335 43.8374 12.7655C43.6627 12.5909 43.441 12.4565 43.1723 12.3624C42.9035 12.2684 42.5374 12.1609 42.0738 12.0399C41.3885 11.8653 40.8343 11.6839 40.411 11.4958C39.9945 11.3009 39.6518 11.0288 39.3831 10.6795C39.0807 10.31 38.9296 9.80943 38.9296 9.1779C38.9296 8.50606 39.0942 7.94507 39.4234 7.49494C39.7593 7.04481 40.1994 6.70889 40.7436 6.48718C41.2877 6.25875 41.8756 6.14454 42.5071 6.14454C43.3671 6.14454 44.1028 6.33601 44.7141 6.71896C45.3255 7.09519 45.8059 7.59572 46.1552 8.22053L44.4824 9.13759C44.2606 8.74792 43.9852 8.44224 43.656 8.22053C43.3268 7.9921 42.917 7.87789 42.4265 7.87789C41.9629 7.87789 41.6069 7.97531 41.3583 8.17014C41.1097 8.36497 40.9854 8.60348 40.9854 8.88565C40.9854 9.1208 41.066 9.31227 41.2273 9.46008C41.3885 9.60788 41.5934 9.72881 41.842 9.82287C42.0973 9.91021 42.4467 10.0143 42.8901 10.1353C43.5955 10.3234 44.1699 10.5249 44.6134 10.7399C45.0568 10.9549 45.4296 11.2539 45.732 11.6368C46.0545 12.0467 46.2157 12.5909 46.2157 13.2694C46.2157 14.0084 46.0343 14.6232 45.6715 15.1136C45.3087 15.5973 44.8384 15.9601 44.2606 16.202C43.6896 16.4439 43.0816 16.5648 42.4366 16.5648Z" fill="black"/>
<path d="M31.4823 16.5653C30.8239 16.5653 30.2193 16.4444 29.6683 16.2025C29.1242 15.954 28.6841 15.5912 28.3482 15.1142C28.019 14.6372 27.8544 14.0527 27.8544 13.3607C27.8544 12.3462 28.2306 11.6072 28.9831 11.1436C29.7422 10.6733 30.7769 10.4381 32.087 10.4381H34.6064C34.6064 9.71256 34.4351 9.12806 34.0924 8.68464C33.7565 8.23451 33.2157 8.00944 32.4699 8.00944C31.872 8.00944 31.3647 8.14381 30.9482 8.41254C30.5384 8.68128 30.2125 9.0172 29.9707 9.42031L28.328 8.22107C28.8453 7.51564 29.4366 6.9916 30.1017 6.64896C30.7735 6.2996 31.5428 6.12492 32.4095 6.12492C33.3299 6.12492 34.1059 6.2996 34.7374 6.64896C35.3689 6.99832 35.8459 7.48204 36.1684 8.10014C36.4909 8.71823 36.6521 9.43038 36.6521 10.2366V16.3638H34.8684L34.7374 14.7614C33.9984 15.964 32.9133 16.5653 31.4823 16.5653ZM31.7746 14.7413C32.3255 14.7413 32.8126 14.6069 33.2358 14.3382C33.6591 14.0695 33.9883 13.7302 34.2234 13.3203C34.4653 12.9038 34.5929 12.4671 34.6064 12.0103H32.2281C31.5092 12.0103 30.9684 12.1446 30.6056 12.4134C30.2495 12.6754 30.0714 13.0147 30.0714 13.4312C30.0714 13.8545 30.2327 14.1803 30.5552 14.4087C30.8844 14.6304 31.2908 14.7413 31.7746 14.7413Z" fill="black"/>
<path d="M25.2041 16.5655C24.4987 16.5655 23.9881 16.3841 23.6723 16.0213C23.3566 15.6585 23.1987 15.1008 23.1987 14.3484V2.12422H25.3654V13.9957C25.3654 14.1569 25.4225 14.3047 25.5367 14.4391C25.6576 14.5734 25.8524 14.6406 26.1212 14.6406C26.3093 14.6406 26.5512 14.6171 26.8468 14.5701V16.3639C26.2287 16.4983 25.6811 16.5655 25.2041 16.5655Z" fill="black"/>
<path d="M13.7961 20.778H11.6093V6.29645H13.7961V7.41507C14.1455 6.96494 14.5687 6.63237 15.0659 6.41739C15.5698 6.19568 16.1207 6.08482 16.7186 6.08482C17.639 6.08482 18.415 6.32669 19.0465 6.81041C19.6781 7.28742 20.1551 7.92231 20.4776 8.71508C20.8068 9.50786 20.9714 10.3779 20.9714 11.3252C20.9714 12.2322 20.8135 13.0888 20.4977 13.895C20.182 14.6945 19.6915 15.3462 19.0264 15.85C18.3881 16.327 17.629 16.5656 16.7488 16.5656C16.1643 16.5656 15.6134 16.4581 15.0961 16.2431C14.5855 16.0214 14.1522 15.6854 13.7961 15.2353V20.778ZM16.1744 14.5903C17.0411 14.5903 17.6928 14.288 18.1295 13.6834C18.5662 13.072 18.7845 12.2859 18.7845 11.3252C18.7845 10.7474 18.6972 10.2066 18.5225 9.70269C18.3478 9.19881 18.069 8.79235 17.6861 8.4833C17.3031 8.17425 16.7992 8.01973 16.1744 8.01973C15.5899 8.01973 15.1062 8.16753 14.7232 8.46314C14.3403 8.75875 14.0548 9.1585 13.8666 9.66238C13.6852 10.1595 13.5945 10.7138 13.5945 11.3252C13.5945 11.9097 13.6819 12.4505 13.8566 12.9477C14.038 13.4448 14.3168 13.8446 14.693 14.1469C15.076 14.4425 15.5698 14.5903 16.1744 14.5903Z" fill="black"/>
<path d="M3.62794 16.5653C2.96954 16.5653 2.36488 16.4444 1.81397 16.2025C1.26978 15.954 0.829724 15.5912 0.493804 15.1142C0.164601 14.6372 0 14.0527 0 13.3607C0 12.3462 0.376231 11.6072 1.12869 11.1436C1.88787 10.6733 2.92251 10.4381 4.2326 10.4381H6.75201C6.75201 9.71256 6.58069 9.12806 6.23805 8.68464C5.90213 8.23451 5.3613 8.00944 4.61555 8.00944C4.01761 8.00944 3.51037 8.14381 3.09383 8.41254C2.68401 8.68128 2.35816 9.0172 2.1163 9.42031L0.473648 8.22107C0.990966 7.51564 1.58219 6.9916 2.24731 6.64896C2.91915 6.2996 3.68841 6.12492 4.55509 6.12492C5.47551 6.12492 6.25149 6.2996 6.88302 6.64896C7.51455 6.99832 7.99156 7.48204 8.31404 8.10014C8.63652 8.71823 8.79776 9.43038 8.79776 10.2366V16.3638H7.01403L6.88302 14.7614C6.14399 15.964 5.05897 16.5653 3.62794 16.5653ZM3.9202 14.7413C4.47111 14.7413 4.95819 14.6069 5.38145 14.3382C5.80471 14.0695 6.13391 13.7302 6.36906 13.3203C6.61092 12.9038 6.73857 12.4671 6.75201 12.0103H4.37369C3.65482 12.0103 3.11399 12.1446 2.75119 12.4134C2.39512 12.6754 2.21708 13.0147 2.21708 13.4312C2.21708 13.8545 2.37832 14.1803 2.7008 14.4087C3.03001 14.6304 3.43647 14.7413 3.9202 14.7413Z" fill="black"/>
<path fill-rule="evenodd" clip-rule="evenodd" d="M85.1629 20.3127C88.2559 20.3092 91.0254 18.9353 92.8872 16.7701L91.2896 14.6123C89.9187 16.4989 87.6856 17.7281 85.1629 17.7319C81.0447 17.7256 77.6984 14.4541 77.6145 10.3878C77.801 10.9106 78.3037 11.2851 78.8947 11.2851C79.6444 11.2851 80.2522 10.6823 80.2522 9.93862C80.2522 9.67135 80.1737 9.42226 80.0383 9.21281L80.0397 9.21266L80.0299 9.19999C79.9935 9.14498 79.9531 9.09277 79.9091 9.04377L77.0403 5.33473L76.6264 4.7757L76.618 4.78869L76.6164 4.78669L76.6164 4.79114C75.6003 6.36053 75.011 8.22767 75.011 10.2313C75.011 15.7952 79.5551 20.3064 85.1629 20.3127ZM92.7112 10.0749C92.6274 6.00859 89.281 2.73704 85.1629 2.7308C82.6402 2.73463 80.4071 3.96378 79.0362 5.85035L77.4385 3.69257C79.3004 1.52741 82.0698 0.153455 85.1629 0.149966C90.7707 0.156292 95.3148 4.66745 95.3148 10.2313C95.3148 12.235 94.7255 14.1022 93.7094 15.6716L93.7093 15.676L93.7078 15.674L93.6994 15.687L93.2855 15.1279L90.4167 11.4189C90.3727 11.3699 90.3323 11.3177 90.2958 11.2627L90.286 11.25L90.2874 11.2499C90.1521 11.0404 90.0736 10.7913 90.0736 10.5241C90.0736 9.7804 90.6813 9.17754 91.4311 9.17754C92.022 9.17754 92.5248 9.5521 92.7112 10.0749Z" fill="black"/>
</svg>
