<svg width="33" height="33" viewBox="0 0 33 33" fill="none" xmlns="http://www.w3.org/2000/svg">
<path d="M18.5625 2.57745H14.4375C12.3869 2.57984 10.4211 3.39548 8.97111 4.84544C7.52115 6.2954 6.70551 8.26128 6.70312 10.3118V22.6868C6.70551 24.7374 7.52115 26.7033 8.97111 28.1532C10.4211 29.6032 12.3869 30.4188 14.4375 30.4212H18.5625C20.6131 30.4188 22.5789 29.6032 24.0289 28.1532C25.4789 26.7033 26.2945 24.7374 26.2969 22.6868V10.3118C26.2945 8.26128 25.4789 6.2954 24.0289 4.84544C22.5789 3.39548 20.6131 2.57984 18.5625 2.57745ZM25.2656 22.6868C25.2636 24.464 24.5567 26.1678 23.3001 27.4244C22.0434 28.681 20.3397 29.3879 18.5625 29.39H14.4375C12.6603 29.3879 10.9566 28.681 9.69994 27.4244C8.4433 26.1678 7.73642 24.464 7.73438 22.6868V10.3118C7.73642 8.53468 8.4433 6.8309 9.69994 5.57426C10.9566 4.31763 12.6603 3.61075 14.4375 3.6087H18.5625C20.3397 3.61075 22.0434 4.31763 23.3001 5.57426C24.5567 6.8309 25.2636 8.53468 25.2656 10.3118V22.6868ZM17.0156 9.49456V23.5041L19.2289 21.2908C19.3257 21.194 19.4569 21.1397 19.5938 21.1397C19.7306 21.1397 19.8618 21.194 19.9586 21.2908C20.0553 21.3875 20.1097 21.5188 20.1097 21.6556C20.1097 21.7924 20.0553 21.9236 19.9586 22.0204L16.8648 25.1141C16.8169 25.1621 16.7601 25.2001 16.6975 25.2261C16.6349 25.252 16.5678 25.2654 16.5 25.2654C16.4322 25.2654 16.3651 25.252 16.3025 25.2261C16.24 25.2001 16.1831 25.1621 16.1352 25.1141L13.0414 22.0204C12.9447 21.9236 12.8903 21.7924 12.8903 21.6556C12.8903 21.5188 12.9447 21.3875 13.0414 21.2908C13.1382 21.194 13.2694 21.1397 13.4062 21.1397C13.5431 21.1397 13.6743 21.194 13.7711 21.2908L15.9844 23.5041V9.49456L13.7711 11.7079C13.6743 11.8046 13.5431 11.859 13.4062 11.859C13.2694 11.859 13.1382 11.8046 13.0414 11.7079C12.9447 11.6111 12.8903 11.4799 12.8903 11.3431C12.8903 11.2063 12.9447 11.075 13.0414 10.9783L16.1352 7.88452C16.1831 7.83658 16.24 7.79855 16.3025 7.7726C16.3651 7.74665 16.4322 7.7333 16.5 7.7333C16.5678 7.7333 16.6349 7.74665 16.6975 7.7726C16.7601 7.79855 16.8169 7.83658 16.8648 7.88452L19.9586 10.9783C20.0553 11.075 20.1097 11.2063 20.1097 11.3431C20.1097 11.4799 20.0553 11.6111 19.9586 11.7079C19.8618 11.8046 19.7306 11.859 19.5938 11.859C19.4569 11.859 19.3257 11.8046 19.2289 11.7079L17.0156 9.49456Z" fill="black"/>
</svg>
