<svg width="621" height="87" viewBox="0 0 621 87" fill="none" xmlns="http://www.w3.org/2000/svg">
<path d="M15.1504 39.3792C8.56762 39.3792 3.00409 32.8814 3.00409 23.623C3.00409 13.8974 9.41701 6.25291 17.5287 6.25291C20.4591 6.25291 23.3046 7.05983 25.3431 7.90923L22.3703 16.0634H21.9456C21.0537 10.9246 18.463 8.33393 15.023 8.33393C10.3089 8.33393 7.03871 13.5577 7.03871 20.8625C7.03871 29.3139 10.8185 35.3446 16.9341 35.3446C20.5441 35.3446 23.432 33.3485 25.2157 29.144L25.7254 29.3564C24.4088 35.8967 20.0769 39.3792 15.1504 39.3792ZM40.468 38.7422V38.275C41.8695 37.5955 42.6764 36.3639 42.6764 34.3253V20.5652C42.6764 18.9089 41.9544 18.3568 40.7228 18.3568C38.939 18.3568 37.3252 20.1405 35.4141 23.3257L34.9894 23.2408L36.3484 16.3607H36.6032C37.0279 16.8279 37.7499 17.1251 38.6842 17.1251H50.5757C51.4676 17.1251 52.232 16.8279 52.6567 16.3607H52.9116L54.2281 23.2408L53.8459 23.3257C51.9348 20.1405 50.3209 18.3568 48.5372 18.3568C47.2631 18.3568 46.5836 18.9089 46.5836 20.5652V34.3253C46.5836 36.3639 47.3905 37.5955 48.792 38.275V38.7422H40.468ZM64.668 39.1669C61.7801 39.1669 58.8072 38.9121 55.9193 38.5723V38.1476C57.2783 37.4256 58.0428 36.194 58.0428 34.1555V21.7119C58.0428 19.6733 57.2783 18.3992 55.9193 17.7622V17.3375C58.6373 16.9977 61.6102 16.7429 64.2858 16.7429C70.0617 16.7429 73.5017 18.4842 73.5017 21.457C73.5017 24.3025 70.7836 26.0013 67.3436 26.5534C71.4632 27.148 74.8607 29.2715 74.8607 32.9238C74.8607 36.6187 71.2508 39.1669 64.668 39.1669ZM64.9228 18.017C63.0117 18.017 61.9924 18.8664 61.9924 20.82V25.9164H64.2858C67.3861 25.9164 69.2972 24.3874 69.2972 21.8817C69.2972 19.461 67.4285 18.017 64.9228 18.017ZM61.9924 35.0898C61.9924 37.0434 63.1391 37.8503 65.2201 37.8503C68.4478 37.8503 70.5288 35.8118 70.5288 32.5416C70.5288 29.1865 68.193 27.2754 64.2433 27.2754H61.9924V35.0898ZM86.8757 39.3368C81.6519 39.3368 77.4049 34.2404 77.4049 27.8275C77.4049 21.4995 81.5669 16.4456 86.8757 16.4456C92.2268 16.4456 96.3889 21.457 96.3889 27.8275C96.3889 34.2829 92.0994 39.3368 86.8757 39.3368ZM86.8757 38.0202C90.2308 38.0202 92.057 33.7732 92.057 27.87C92.057 22.0091 90.3582 17.8471 86.8757 17.8471C83.4781 17.8471 81.7368 22.0091 81.7368 27.87C81.7368 33.7732 83.563 38.0202 86.8757 38.0202ZM103.082 26.5959C103.082 32.5841 105.928 36.2365 109.877 36.2365C112.298 36.2365 114.422 34.9624 115.653 32.754L116.12 33.0088C114.931 37.0009 111.619 39.3792 108.178 39.3792C103.677 39.3792 99.3448 35.6419 99.3448 28.7618C99.3448 22.0091 103.464 16.4881 108.9 16.4881C113.232 16.4881 116.375 20.1405 116.375 25.1944V26.0862H103.082C103.082 26.2561 103.082 26.426 103.082 26.5959ZM108.009 18.017C105.758 18.017 103.634 20.1405 103.167 24.6847H112.341C112.298 20.7351 110.599 18.017 108.009 18.017ZM129.489 14.492C125.496 14.492 122.991 12.2836 122.991 9.43813C122.991 7.78182 124.053 6.63514 125.454 6.63514C126.856 6.63514 127.747 7.61194 127.747 9.01344C127.747 10.7122 126.601 11.5616 125.412 11.5616H125.369C126.006 12.6658 127.705 13.2604 129.489 13.2604C131.315 13.2604 132.971 12.7083 133.566 11.6041H133.523C132.419 11.6041 131.187 10.7122 131.187 9.01344C131.187 7.61194 132.122 6.67761 133.481 6.67761C134.925 6.67761 135.986 7.78182 135.986 9.43813C135.986 12.3261 133.438 14.492 129.489 14.492ZM119.126 38.7422V38.275C120.485 37.553 121.25 36.3639 121.25 34.3253V21.542C121.25 19.5034 120.485 18.3143 119.126 17.5498V17.1251H127.323V17.5498C125.964 18.3143 125.199 19.5034 125.199 21.542V29.5263L133.821 21.542C133.821 19.5034 133.014 18.3143 131.655 17.5498V17.1251H139.894V17.5498C138.492 18.3143 137.728 19.5034 137.728 21.542V34.3253C137.728 36.3639 138.492 37.553 139.894 38.275V38.7422H131.655V38.275C133.014 37.553 133.821 36.3639 133.821 34.3253V23.4956L125.199 31.4374V34.3253C125.199 36.3639 125.964 37.553 127.323 38.275V38.7422H119.126ZM150.771 38.7422V38.275C152.13 37.553 152.894 36.3639 152.894 34.3253V21.542C152.894 19.5034 152.13 18.3143 150.771 17.5498V17.1251H171.454V17.5498C170.095 18.3143 169.288 19.5034 169.288 21.542V34.3253C169.288 36.3639 170.095 37.553 171.454 38.275V38.7422H163.215V38.275C164.574 37.553 165.38 36.3639 165.38 34.3253V21.4995C165.38 19.3336 164.658 18.5266 162.493 18.5266H159.732C157.524 18.5266 156.844 19.3336 156.844 21.4995V34.3253C156.844 36.3639 157.609 37.553 158.968 38.275V38.7422H150.771ZM183.76 39.3368C178.536 39.3368 174.289 34.2404 174.289 27.8275C174.289 21.4995 178.451 16.4456 183.76 16.4456C189.111 16.4456 193.273 21.457 193.273 27.8275C193.273 34.2829 188.983 39.3368 183.76 39.3368ZM183.76 38.0202C187.115 38.0202 188.941 33.7732 188.941 27.87C188.941 22.0091 187.242 17.8471 183.76 17.8471C180.362 17.8471 178.621 22.0091 178.621 27.87C178.621 33.7732 180.447 38.0202 183.76 38.0202ZM206.726 39.0395L200.61 20.6077L198.741 33.9431C198.402 36.2789 199.081 37.553 200.568 38.275V38.7422H194.622V38.275C196.151 37.3407 196.83 36.1091 197.17 33.9006L198.911 21.542C199.209 19.5034 198.614 18.3143 197.255 17.5498V17.1251H203.498L208.212 31.4799L213.351 17.1251H219.467V17.5498C218.108 18.3143 217.513 19.5034 217.81 21.542L219.551 34.3253C219.806 36.194 220.443 37.3407 221.887 38.275V38.7422H213.861V38.275C215.262 37.553 215.899 36.3639 215.602 34.3253L213.733 20.7351L207.235 39.0395H206.726ZM232.782 39.3368C227.558 39.3368 223.311 34.2404 223.311 27.8275C223.311 21.4995 227.473 16.4456 232.782 16.4456C238.133 16.4456 242.295 21.457 242.295 27.8275C242.295 34.2829 238.006 39.3368 232.782 39.3368ZM232.782 38.0202C236.137 38.0202 237.963 33.7732 237.963 27.87C237.963 22.0091 236.265 17.8471 232.782 17.8471C229.385 17.8471 227.643 22.0091 227.643 27.87C227.643 33.7732 229.469 38.0202 232.782 38.0202ZM278.762 44.7304C275.874 39.3368 274.727 38.7422 270.947 38.7422H245.083V38.275C246.442 37.553 247.207 36.3639 247.207 34.3253V21.542C247.207 19.5034 246.442 18.2718 245.083 17.5498V17.1251H253.28V17.5498C251.963 18.3143 251.157 19.5034 251.157 21.4995V34.3678C251.157 36.5338 251.836 37.3407 254.044 37.3407H256.465C258.674 37.3407 259.396 36.5338 259.396 34.3678V21.4995C259.396 19.5034 258.589 18.3143 257.23 17.5498V17.1251H265.469V17.5498C264.11 18.3143 263.303 19.5034 263.303 21.4995V34.3678C263.303 36.5338 264.025 37.3407 266.233 37.3407H268.654C270.862 37.3407 271.542 36.5338 271.542 34.3678V21.4995C271.542 19.5034 270.777 18.3143 269.418 17.5498V17.1251H277.615V17.5498C276.256 18.3143 275.492 19.5034 275.492 21.542V34.4952C275.492 36.3639 276.086 37.3832 277.403 37.3832C277.7 37.3832 277.955 37.3407 278.21 37.2558L278.295 37.2982L279.144 44.6455L278.762 44.7304ZM289.164 39.0819C287.041 39.0819 283.388 38.8271 280.585 38.4874V38.0627C281.944 37.4256 282.709 36.1515 282.709 34.1555V21.4995C282.709 19.461 281.944 18.3143 280.585 17.5498V17.1251H288.867V17.5498C287.465 18.3143 286.658 19.5034 286.658 21.4995V25.8739C287.72 25.5341 288.952 25.3643 290.183 25.3643C295.492 25.3643 299.272 28.1672 299.272 32.2868C299.272 36.5762 295.365 39.0819 289.164 39.0819ZM286.658 35.0049C286.658 36.916 287.763 37.8079 289.886 37.8079C293.029 37.8079 294.94 35.7268 294.94 32.2868C294.94 28.6769 292.944 26.7233 289.334 26.7233C288.442 26.7233 287.55 26.8082 286.658 27.063V35.0049ZM301.447 38.7422V38.275C302.806 37.553 303.57 36.3639 303.57 34.3253V21.542C303.57 19.5034 302.806 18.3143 301.447 17.5498V17.1251H309.601V17.5498C308.284 18.3143 307.52 19.5034 307.52 21.542V26.0438H311.555C312.277 20.5652 316.141 16.4881 320.771 16.4881C325.952 16.4881 330.071 21.457 330.071 27.87C330.071 34.2829 325.782 39.3792 320.771 39.3792C315.717 39.3792 311.427 34.2404 311.427 27.87C311.427 27.7001 311.427 27.5727 311.47 27.4028H307.52V34.3253C307.52 36.3639 308.284 37.5106 309.601 38.275V38.7422H301.447ZM320.771 38.0202C323.913 38.0202 325.782 33.7732 325.782 27.87C325.782 22.0091 324.083 17.8471 320.771 17.8471C317.5 17.8471 315.802 22.0091 315.802 27.87C315.802 33.7732 317.628 38.0202 320.771 38.0202ZM341.138 38.7422V38.275C342.497 37.553 343.261 36.3639 343.261 34.3253V21.542C343.261 19.5034 342.497 18.3143 341.138 17.5498V17.1251H361.82V17.5498C360.461 18.3143 359.654 19.5034 359.654 21.542V34.3253C359.654 36.3639 360.461 37.553 361.82 38.275V38.7422H353.581V38.275C354.94 37.553 355.747 36.3639 355.747 34.3253V21.4995C355.747 19.3336 355.025 18.5266 352.859 18.5266H350.099C347.89 18.5266 347.211 19.3336 347.211 21.4995V34.3253C347.211 36.3639 347.975 37.553 349.334 38.275V38.7422H341.138ZM366.057 39.2943C364.146 39.2943 363.212 38.1476 363.212 36.7036C363.212 35.4296 363.934 34.5377 365.123 34.5377C366.312 34.5377 366.567 35.4296 367.374 35.4296C368.223 35.4296 368.733 34.1555 368.945 31.1826C369.157 28.0823 369.242 24.26 369.285 21.7119C369.327 19.376 368.563 18.1019 367.076 17.5498V17.1251H383.682V17.5498C382.323 18.3143 381.559 19.5034 381.559 21.542V34.3253C381.559 36.3639 382.323 37.553 383.682 38.275V38.7422H375.485V38.275C376.802 37.553 377.609 36.3639 377.609 34.3253V21.4995C377.609 19.3336 376.887 18.5266 374.721 18.5266H373.829C371.663 18.5266 371.026 19.2911 370.984 21.4995C370.899 24.345 370.814 28.0823 370.559 31.4374C370.219 36.6612 368.945 39.2943 366.057 39.2943ZM386.384 34.3678C386.384 30.4606 390.419 26.8507 398.403 25.9164C398.403 23.8353 398.403 21.9242 398.403 20.6077C398.403 18.9513 397.554 17.8047 395.77 17.8047C391.693 17.8047 392.67 23.4956 389.399 23.4956C388.338 23.4956 387.573 22.6887 387.573 21.5845C387.573 19.0787 391.523 16.5306 396.28 16.5306C399.974 16.5306 402.353 18.1019 402.353 21.0748C402.353 24.6423 402.268 31.1826 402.268 35.3021C402.268 36.5338 402.82 37.2133 403.754 37.2133C404.306 37.2133 404.986 36.9585 405.58 36.4488L405.835 36.7886C405.028 38.275 403.287 39.2943 401.716 39.2943C399.974 39.2943 398.361 38.2326 398.361 35.7693V35.557H398.318C396.28 37.9353 393.901 39.3368 391.481 39.3368C388.593 39.3368 386.384 37.2982 386.384 34.3678ZM390.504 33.1362C390.504 35.3446 391.65 36.6612 393.477 36.6612C395.175 36.6612 396.917 35.8967 398.361 34.5377C398.361 32.2443 398.361 29.5263 398.403 26.9781C392.372 28.0398 390.504 30.3757 390.504 33.1362ZM417.78 16.573C419.819 16.573 421.645 16.9553 423.216 17.5923L421.008 24.1751H420.583C420.031 20.3104 418.077 18.3143 415.827 18.3143C412.811 18.3143 410.858 21.4995 410.858 26.1287C410.858 31.9895 413.278 36.194 417.483 36.194C419.946 36.194 421.942 34.5802 423.089 32.1594L423.514 32.3717C422.494 37.0009 419.267 39.3792 415.657 39.3792C411.452 39.3792 407.29 35.2172 407.29 28.7194C407.29 21.8393 411.707 16.573 417.78 16.573ZM430.409 38.7422V38.275C431.81 37.5955 432.617 36.3639 432.617 34.3253V20.5652C432.617 18.9089 431.895 18.3568 430.664 18.3568C428.88 18.3568 427.266 20.1405 425.355 23.3257L424.93 23.2408L426.289 16.3607H426.544C426.969 16.8279 427.691 17.1251 428.625 17.1251H440.517C441.409 17.1251 442.173 16.8279 442.598 16.3607H442.853L444.169 23.2408L443.787 23.3257C441.876 20.1405 440.262 18.3568 438.478 18.3568C437.204 18.3568 436.525 18.9089 436.525 20.5652V34.3253C436.525 36.3639 437.331 37.5955 438.733 38.275V38.7422H430.409ZM445.86 38.7422V38.275C447.219 37.553 447.984 36.3639 447.984 34.3253V21.542C447.984 19.5034 447.219 18.3143 445.86 17.5498V17.1251H454.057V17.5498C452.698 18.3143 451.933 19.5034 451.933 21.542V29.5263L460.555 21.542C460.555 19.5034 459.748 18.3143 458.389 17.5498V17.1251H466.628V17.5498C465.226 18.3143 464.462 19.5034 464.462 21.542V34.3253C464.462 36.3639 465.226 37.553 466.628 38.275V38.7422H458.389V38.275C459.748 37.553 460.555 36.3639 460.555 34.3253V23.4956L451.933 31.4374V34.3253C451.933 36.3639 452.698 37.553 454.057 38.275V38.7422H445.86ZM469.376 38.7422V38.275C470.735 37.553 471.5 36.3639 471.5 34.3253V21.542C471.5 19.5034 470.735 18.3143 469.376 17.5498V17.1251H477.573V17.5498C476.256 18.3143 475.449 19.5034 475.449 21.4995V27.148L481.353 21.2022C482.924 19.6308 482.372 18.2718 480.97 17.5498V17.1251H488.148V17.5498C486.619 18.2294 485.005 19.5459 482.881 21.7119L480.036 24.5149L485.854 34.3253C487.086 36.4064 488.275 37.9777 489.167 38.275V38.7422H481.268V38.275C482.754 37.7229 482.669 36.4064 481.522 34.4952L477.275 27.2754L475.449 29.1016V34.3253C475.449 36.3639 476.214 37.553 477.573 38.275V38.7422H469.376ZM509.065 16.573C511.104 16.573 512.93 16.9553 514.501 17.5923L512.293 24.1751H511.868C511.316 20.3104 509.362 18.3143 507.111 18.3143C504.096 18.3143 502.142 21.4995 502.142 26.1287C502.142 31.9895 504.563 36.194 508.768 36.194C511.231 36.194 513.227 34.5802 514.374 32.1594L514.798 32.3717C513.779 37.0009 510.551 39.3792 506.942 39.3792C502.737 39.3792 498.575 35.2172 498.575 28.7194C498.575 21.8393 502.992 16.573 509.065 16.573ZM521.694 38.7422V38.275C523.095 37.5955 523.902 36.3639 523.902 34.3253V20.5652C523.902 18.9089 523.18 18.3568 521.949 18.3568C520.165 18.3568 518.551 20.1405 516.64 23.3257L516.215 23.2408L517.574 16.3607H517.829C518.254 16.8279 518.976 17.1251 519.91 17.1251H531.802C532.693 17.1251 533.458 16.8279 533.883 16.3607H534.137L535.454 23.2408L535.072 23.3257C533.161 20.1405 531.547 18.3568 529.763 18.3568C528.489 18.3568 527.809 18.9089 527.809 20.5652V34.3253C527.809 36.3639 528.616 37.5955 530.018 38.275V38.7422H521.694ZM536.645 34.3678C536.645 30.4606 540.68 26.8507 548.664 25.9164C548.664 23.8353 548.664 21.9242 548.664 20.6077C548.664 18.9513 547.815 17.8047 546.031 17.8047C541.954 17.8047 542.931 23.4956 539.661 23.4956C538.599 23.4956 537.835 22.6887 537.835 21.5845C537.835 19.0787 541.784 16.5306 546.541 16.5306C550.236 16.5306 552.614 18.1019 552.614 21.0748C552.614 24.6423 552.529 31.1826 552.529 35.3021C552.529 36.5338 553.081 37.2133 554.015 37.2133C554.568 37.2133 555.247 36.9585 555.842 36.4488L556.097 36.7886C555.29 38.275 553.548 39.2943 551.977 39.2943C550.236 39.2943 548.622 38.2326 548.622 35.7693V35.557H548.579C546.541 37.9353 544.163 39.3368 541.742 39.3368C538.854 39.3368 536.645 37.2982 536.645 34.3678ZM540.765 33.1362C540.765 35.3446 541.912 36.6612 543.738 36.6612C545.437 36.6612 547.178 35.8967 548.622 34.5377C548.622 32.2443 548.622 29.5263 548.664 26.9781C542.634 28.0398 540.765 30.3757 540.765 33.1362ZM557.509 38.7422V38.275C558.868 37.553 559.632 36.3639 559.632 34.3253V21.542C559.632 19.5034 558.868 18.3143 557.509 17.5498V17.1251H565.706V17.5498C564.389 18.3143 563.582 19.5034 563.582 21.4995V25.1519H572.203V21.4995C572.203 19.5034 571.396 18.3143 570.037 17.5498V17.1251H578.277V17.5498C576.875 18.3143 576.111 19.5034 576.111 21.542V34.3253C576.111 36.3639 576.875 37.553 578.277 38.275V38.7422H570.037V38.275C571.396 37.553 572.203 36.3639 572.203 34.3253V26.5534H563.582V34.3253C563.582 36.3639 564.347 37.553 565.706 38.275V38.7422H557.509ZM584.847 26.5959C584.847 32.5841 587.693 36.2365 591.642 36.2365C594.063 36.2365 596.187 34.9624 597.418 32.754L597.885 33.0088C596.696 37.0009 593.384 39.3792 589.943 39.3792C585.442 39.3792 581.11 35.6419 581.11 28.7618C581.11 22.0091 585.229 16.4881 590.665 16.4881C594.997 16.4881 598.14 20.1405 598.14 25.1944V26.0862H584.847C584.847 26.2561 584.847 26.426 584.847 26.5959ZM589.774 18.017C587.523 18.017 585.399 20.1405 584.932 24.6847H594.105C594.063 20.7351 592.364 18.017 589.774 18.017ZM605.264 38.7422V38.275C606.666 37.5955 607.473 36.3639 607.473 34.3253V20.5652C607.473 18.9089 606.751 18.3568 605.519 18.3568C603.736 18.3568 602.122 20.1405 600.211 23.3257L599.786 23.2408L601.145 16.3607H601.4C601.824 16.8279 602.546 17.1251 603.481 17.1251H615.372C616.264 17.1251 617.028 16.8279 617.453 16.3607H617.708L619.025 23.2408L618.642 23.3257C616.731 20.1405 615.117 18.3568 613.334 18.3568C612.06 18.3568 611.38 18.9089 611.38 20.5652V34.3253C611.38 36.3639 612.187 37.5955 613.588 38.275V38.7422H605.264ZM90.2442 85.7422V85.275C91.6032 84.553 92.4526 83.3639 92.4526 81.3253V75.8468C91.3484 76.2715 89.6072 76.6537 87.7385 76.6537C83.0668 76.6537 80.5611 74.7001 80.5611 70.5805V68.542C80.5611 66.5034 79.7967 65.3143 78.4376 64.5498V64.1251H86.6343V64.5498C85.3177 65.3143 84.5108 66.5034 84.5108 68.4995V70.5805C84.5108 73.9781 85.9972 75.2522 89.0975 75.2522C90.3291 75.2522 91.5183 75.0398 92.4526 74.7001V68.4995C92.4526 66.5034 91.6457 65.3143 90.2867 64.5498V64.1251H98.5258V64.5498C97.1243 65.3143 96.3598 66.5034 96.3598 68.542V81.3253C96.3598 83.3639 97.1243 84.553 98.5258 85.275V85.7422H90.2442ZM101.186 81.3678C101.186 77.4606 105.221 73.8507 113.205 72.9164C113.205 70.8353 113.205 68.9242 113.205 67.6077C113.205 65.9513 112.356 64.8047 110.572 64.8047C106.495 64.8047 107.472 70.4956 104.202 70.4956C103.14 70.4956 102.376 69.6887 102.376 68.5845C102.376 66.0787 106.325 63.5306 111.082 63.5306C114.777 63.5306 117.155 65.1019 117.155 68.0748C117.155 71.6423 117.07 78.1826 117.07 82.3021C117.07 83.5338 117.622 84.2133 118.557 84.2133C119.109 84.2133 119.788 83.9585 120.383 83.4488L120.638 83.7886C119.831 85.275 118.089 86.2943 116.518 86.2943C114.777 86.2943 113.163 85.2326 113.163 82.7693V82.557H113.12C111.082 84.9353 108.704 86.3368 106.283 86.3368C103.395 86.3368 101.186 84.2982 101.186 81.3678ZM105.306 80.1362C105.306 82.3446 106.453 83.6612 108.279 83.6612C109.978 83.6612 111.719 82.8967 113.163 81.5377C113.163 79.2443 113.163 76.5263 113.205 73.9781C107.175 75.0398 105.306 77.3757 105.306 80.1362ZM132.582 63.573C134.621 63.573 136.447 63.9553 138.019 64.5923L135.81 71.1751H135.385C134.833 67.3104 132.88 65.3143 130.629 65.3143C127.613 65.3143 125.66 68.4995 125.66 73.1287C125.66 78.9895 128.081 83.194 132.285 83.194C134.748 83.194 136.744 81.5802 137.891 79.1594L138.316 79.3717C137.297 84.0009 134.069 86.3792 130.459 86.3792C126.254 86.3792 122.092 82.2172 122.092 75.7194C122.092 68.8393 126.509 63.573 132.582 63.573ZM145.211 85.7422V85.275C146.613 84.5955 147.42 83.3639 147.42 81.3253V67.5652C147.42 65.9089 146.698 65.3568 145.466 65.3568C143.682 65.3568 142.068 67.1405 140.157 70.3257L139.733 70.2408L141.092 63.3607H141.346C141.771 63.8279 142.493 64.1251 143.427 64.1251H155.319C156.211 64.1251 156.975 63.8279 157.4 63.3607H157.655L158.971 70.2408L158.589 70.3257C156.678 67.1405 155.064 65.3568 153.28 65.3568C152.006 65.3568 151.327 65.9089 151.327 67.5652V81.3253C151.327 83.3639 152.134 84.5955 153.535 85.275V85.7422H145.211ZM169.241 86.0819C167.118 86.0819 163.466 85.8271 160.663 85.4874V85.0627C162.022 84.4256 162.786 83.1515 162.786 81.1555V68.4995C162.786 66.461 162.022 65.3143 160.663 64.5498V64.1251H168.944V64.5498C167.543 65.3143 166.736 66.5034 166.736 68.4995V72.8739C167.797 72.5341 169.029 72.3643 170.261 72.3643C175.569 72.3643 179.349 75.1672 179.349 79.2868C179.349 83.5762 175.442 86.0819 169.241 86.0819ZM166.736 82.0049C166.736 83.916 167.84 84.8079 169.963 84.8079C173.106 84.8079 175.017 82.7268 175.017 79.2868C175.017 75.6769 173.021 73.7233 169.411 73.7233C168.519 73.7233 167.628 73.8082 166.736 74.063V82.0049ZM181.524 85.7422V85.275C182.883 84.553 183.648 83.3639 183.648 81.3253V68.542C183.648 66.5034 182.883 65.3143 181.524 64.5498V64.1251H189.678V64.5498C188.362 65.3143 187.597 66.5034 187.597 68.542V73.0438H191.632C192.354 67.5652 196.219 63.4881 200.848 63.4881C206.029 63.4881 210.149 68.457 210.149 74.87C210.149 81.2829 205.859 86.3792 200.848 86.3792C195.794 86.3792 191.504 81.2404 191.504 74.87C191.504 74.7001 191.504 74.5727 191.547 74.4028H187.597V81.3253C187.597 83.3639 188.362 84.5106 189.678 85.275V85.7422H181.524ZM200.848 85.0202C203.99 85.0202 205.859 80.7732 205.859 74.87C205.859 69.0091 204.16 64.8471 200.848 64.8471C197.578 64.8471 195.879 69.0091 195.879 74.87C195.879 80.7732 197.705 85.0202 200.848 85.0202ZM232.045 85.7422V85.275C233.404 84.553 234.253 83.3639 234.253 81.3253V75.8468C233.149 76.2715 231.408 76.6537 229.539 76.6537C224.867 76.6537 222.362 74.7001 222.362 70.5805V68.542C222.362 66.5034 221.597 65.3143 220.238 64.5498V64.1251H228.435V64.5498C227.118 65.3143 226.311 66.5034 226.311 68.4995V70.5805C226.311 73.9781 227.798 75.2522 230.898 75.2522C232.13 75.2522 233.319 75.0398 234.253 74.7001V68.4995C234.253 66.5034 233.446 65.3143 232.087 64.5498V64.1251H240.326V64.5498C238.925 65.3143 238.16 66.5034 238.16 68.542V81.3253C238.16 83.3639 238.925 84.553 240.326 85.275V85.7422H232.045ZM246.894 73.5959C246.894 79.5841 249.74 83.2365 253.689 83.2365C256.11 83.2365 258.234 81.9624 259.465 79.754L259.932 80.0088C258.743 84.0009 255.431 86.3792 251.99 86.3792C247.489 86.3792 243.157 82.6419 243.157 75.7618C243.157 69.0091 247.276 63.4881 252.712 63.4881C257.044 63.4881 260.187 67.1405 260.187 72.1944V73.0862H246.894C246.894 73.2561 246.894 73.426 246.894 73.5959ZM251.821 65.017C249.57 65.017 247.446 67.1405 246.979 71.6847H256.152C256.11 67.7351 254.411 65.017 251.821 65.017ZM262.938 85.7422V85.275C264.297 84.553 265.062 83.3639 265.062 81.3253V68.542C265.062 66.5034 264.297 65.3143 262.938 64.5498V64.1251H275.424C276.401 64.1251 277.123 63.8279 277.548 63.3607H277.802L278.949 70.2408L278.567 70.3257C276.571 67.098 274.872 65.3568 272.027 65.3568C269.861 65.3568 269.011 66.1637 269.011 68.4146V81.3253C269.011 83.3639 269.861 84.5955 271.347 85.275V85.7422H262.938ZM289.871 86.3368C284.648 86.3368 280.401 81.2404 280.401 74.8275C280.401 68.4995 284.563 63.4456 289.871 63.4456C295.223 63.4456 299.385 68.457 299.385 74.8275C299.385 81.2829 295.095 86.3368 289.871 86.3368ZM289.871 85.0202C293.227 85.0202 295.053 80.7732 295.053 74.87C295.053 69.0091 293.354 64.8471 289.871 64.8471C286.474 64.8471 284.733 69.0091 284.733 74.87C284.733 80.7732 286.559 85.0202 289.871 85.0202ZM302.59 74.4028V72.6191L311.849 70.9203V72.704L302.59 74.4028ZM318.491 85.7422V85.275C319.892 84.5955 320.699 83.3639 320.699 81.3253V67.5652C320.699 65.9089 319.977 65.3568 318.745 65.3568C316.962 65.3568 315.348 67.1405 313.437 70.3257L313.012 70.2408L314.371 63.3607H314.626C315.051 63.8279 315.773 64.1251 316.707 64.1251H328.598C329.49 64.1251 330.255 63.8279 330.679 63.3607H330.934L332.251 70.2408L331.869 70.3257C329.957 67.1405 328.344 65.3568 326.56 65.3568C325.286 65.3568 324.606 65.9089 324.606 67.5652V81.3253C324.606 83.3639 325.413 84.5955 326.815 85.275V85.7422H318.491ZM343.249 86.3368C338.025 86.3368 333.778 81.2404 333.778 74.8275C333.778 68.4995 337.94 63.4456 343.249 63.4456C348.6 63.4456 352.762 68.457 352.762 74.8275C352.762 81.2829 348.473 86.3368 343.249 86.3368ZM343.249 85.0202C346.604 85.0202 348.43 80.7732 348.43 74.87C348.43 69.0091 346.731 64.8471 343.249 64.8471C339.851 64.8471 338.11 69.0091 338.11 74.87C338.11 80.7732 339.936 85.0202 343.249 85.0202ZM373.275 86.3792C368.051 86.3792 363.932 82.1747 363.932 71.7272C363.932 65.739 365.163 56.7354 373.148 55.2065C375.101 54.8243 376.588 54.6969 377.989 54.4421C380.58 54.0174 381.09 53.2954 381.005 52.1062L381.387 52.0213C381.769 53.0406 381.939 53.89 381.939 54.5695C381.939 56.693 380.495 57.967 377.522 58.3917C375.526 58.6466 374.04 58.774 372.596 59.0288C367.924 59.8782 366.14 62.5962 365.631 68.542C365.546 69.1366 365.546 69.6887 365.588 70.1558C366.99 66.6308 370.132 64.2101 373.572 64.2101C379.009 64.2101 382.831 69.0091 382.873 75.2097C382.873 81.4952 378.711 86.3792 373.275 86.3792ZM373.403 85.0627C376.673 85.0627 378.456 80.9431 378.456 75.2522C378.456 69.6887 376.8 65.5691 373.445 65.5691C370.132 65.5691 368.391 69.6462 368.391 75.3371C368.391 80.9431 370.132 85.0627 373.403 85.0627ZM395.299 86.3368C390.075 86.3368 385.828 81.2404 385.828 74.8275C385.828 68.4995 389.99 63.4456 395.299 63.4456C400.65 63.4456 404.812 68.457 404.812 74.8275C404.812 81.2829 400.523 86.3368 395.299 86.3368ZM395.299 85.0202C398.654 85.0202 400.48 80.7732 400.48 74.87C400.48 69.0091 398.781 64.8471 395.299 64.8471C391.901 64.8471 390.16 69.0091 390.16 74.87C390.16 80.7732 391.986 85.0202 395.299 85.0202ZM408.257 86.2943C406.346 86.2943 405.412 85.1476 405.412 83.7036C405.412 82.4296 406.134 81.5377 407.323 81.5377C408.512 81.5377 408.767 82.4296 409.574 82.4296C410.423 82.4296 410.933 81.1555 411.145 78.1826C411.357 75.0823 411.442 71.26 411.485 68.7119C411.527 66.376 410.763 65.1019 409.276 64.5498V64.1251H425.882V64.5498C424.523 65.3143 423.759 66.5034 423.759 68.542V81.3253C423.759 83.3639 424.523 84.553 425.882 85.275V85.7422H417.685V85.275C419.002 84.553 419.809 83.3639 419.809 81.3253V68.4995C419.809 66.3336 419.087 65.5266 416.921 65.5266H416.029C413.863 65.5266 413.226 66.2911 413.184 68.4995C413.099 71.345 413.014 75.0823 412.759 78.4374C412.419 83.6612 411.145 86.2943 408.257 86.2943ZM437.248 86.0819C435.125 86.0819 431.472 85.8271 428.669 85.4874V85.0627C430.028 84.4256 430.793 83.1515 430.793 81.1555V68.4995C430.793 66.461 430.028 65.3143 428.669 64.5498V64.1251H436.951V64.5498C435.549 65.3143 434.742 66.5034 434.742 68.4995V72.8739C435.804 72.5341 437.036 72.3643 438.267 72.3643C443.576 72.3643 447.356 75.1672 447.356 79.2868C447.356 83.5762 443.449 86.0819 437.248 86.0819ZM434.742 82.0049C434.742 83.916 435.847 84.8079 437.97 84.8079C441.113 84.8079 443.024 82.7268 443.024 79.2868C443.024 75.6769 441.028 73.7233 437.418 73.7233C436.526 73.7233 435.634 73.8082 434.742 74.063V82.0049ZM449.531 85.7422V85.275C450.89 84.553 451.654 83.3639 451.654 81.3253V68.542C451.654 66.5034 450.89 65.2718 449.531 64.5498V64.1251H457.727V64.5498C456.411 65.3143 455.604 66.5034 455.604 68.4995V81.3678C455.604 83.5338 456.283 84.3407 458.492 84.3407H460.913C463.121 84.3407 463.843 83.5338 463.843 81.3678V68.4995C463.843 66.5034 463.036 65.3143 461.677 64.5498V64.1251H469.916V64.5498C468.557 65.3143 467.75 66.5034 467.75 68.4995V81.3678C467.75 83.5338 468.472 84.3407 470.681 84.3407H473.101C475.31 84.3407 475.989 83.5338 475.989 81.3678V68.4995C475.989 66.5034 475.225 65.3143 473.866 64.5498V64.1251H482.062V64.5498C480.703 65.2718 479.939 66.5034 479.939 68.542V81.3253C479.939 83.3639 480.703 84.553 482.062 85.275V85.7422H449.531ZM488.689 73.5959C488.689 79.5841 491.535 83.2365 495.484 83.2365C497.905 83.2365 500.028 81.9624 501.26 79.754L501.727 80.0088C500.538 84.0009 497.225 86.3792 493.785 86.3792C489.284 86.3792 484.952 82.6419 484.952 75.7618C484.952 69.0091 489.071 63.4881 494.507 63.4881C498.839 63.4881 501.982 67.1405 501.982 72.1944V73.0862H488.689C488.689 73.2561 488.689 73.426 488.689 73.5959ZM493.616 65.017C491.365 65.017 489.241 67.1405 488.774 71.6847H497.947C497.905 67.7351 496.206 65.017 493.616 65.017ZM504.733 85.7422V85.275C506.092 84.553 506.856 83.3639 506.856 81.3253V68.542C506.856 66.5034 506.092 65.3143 504.733 64.5498V64.1251H517.219C518.196 64.1251 518.918 63.8279 519.343 63.3607H519.597L520.744 70.2408L520.362 70.3257C518.366 67.098 516.667 65.3568 513.821 65.3568C511.656 65.3568 510.806 66.1637 510.806 68.4146V81.3253C510.806 83.3639 511.656 84.5955 513.142 85.275V85.7422H504.733ZM531.666 86.3368C526.443 86.3368 522.196 81.2404 522.196 74.8275C522.196 68.4995 526.358 63.4456 531.666 63.4456C537.018 63.4456 541.18 68.457 541.18 74.8275C541.18 81.2829 536.89 86.3368 531.666 86.3368ZM531.666 85.0202C535.021 85.0202 536.848 80.7732 536.848 74.87C536.848 69.0091 535.149 64.8471 531.666 64.8471C528.269 64.8471 526.528 69.0091 526.528 74.87C526.528 80.7732 528.354 85.0202 531.666 85.0202Z" fill="#1E1E1E"/>
</svg>
